<svg width="15" height="15" viewBox="0 0 15 15" fill="none" xmlns="http://www.w3.org/2000/svg">
<path d="M15 7.5C15 3.3585 11.6415 0 7.5 0C3.3585 0 0 3.3585 0 7.5C0 11.6415 3.3585 15 7.5 15C7.54406 15 7.58789 14.9991 7.63184 14.9983V9.15985H6.02051V7.28199H7.63184V5.90012C7.63184 4.29749 8.61019 3.42522 10.0398 3.42522C10.7244 3.42522 11.3128 3.47626 11.4844 3.49903V5.17399H10.4986C9.72084 5.17399 9.57024 5.54363 9.57024 6.08597V7.28199H11.4299L11.1875 9.15985H9.57024V14.7102C12.7051 13.8115 15 10.9234 15 7.5Z" fill="white"/>
</svg>
