<svg width="15" height="15" viewBox="0 0 15 15" fill="none" xmlns="http://www.w3.org/2000/svg">
<path d="M8.93555 7.5C8.93555 8.29285 8.29285 8.93555 7.5 8.93555C6.70715 8.93555 6.06445 8.29285 6.06445 7.5C6.06445 6.70715 6.70715 6.06445 7.5 6.06445C8.29285 6.06445 8.93555 6.70715 8.93555 7.5Z" fill="white"/>
<path d="M10.8572 4.96008C10.7882 4.77308 10.6781 4.60382 10.5351 4.46489C10.3961 4.32184 10.227 4.21175 10.0399 4.14274C9.88812 4.0838 9.66016 4.01365 9.24027 3.99454C8.78606 3.97382 8.64987 3.96936 7.49997 3.96936C6.34995 3.96936 6.21377 3.97371 5.75967 3.99442C5.33978 4.01365 5.1117 4.0838 4.96007 4.14274C4.77296 4.21175 4.6037 4.32184 4.46488 4.46489C4.32183 4.60382 4.21174 4.77296 4.14262 4.96008C4.08368 5.11182 4.01353 5.3399 3.99442 5.75979C3.9737 6.21389 3.96924 6.35008 3.96924 7.50009C3.96924 8.64999 3.9737 8.78618 3.99442 9.2404C4.01353 9.66028 4.08368 9.88825 4.14262 10.04C4.21174 10.2271 4.32172 10.3962 4.46477 10.5352C4.6037 10.6782 4.77284 10.7883 4.95995 10.8573C5.1117 10.9164 5.33978 10.9865 5.75967 11.0056C6.21377 11.0264 6.34984 11.0307 7.49985 11.0307C8.64999 11.0307 8.78617 11.0264 9.24016 11.0056C9.66004 10.9865 9.88812 10.9164 10.0399 10.8573C10.4155 10.7124 10.7123 10.4156 10.8572 10.04C10.9161 9.88825 10.9863 9.66028 11.0055 9.2404C11.0262 8.78618 11.0306 8.64999 11.0306 7.50009C11.0306 6.35008 11.0262 6.21389 11.0055 5.75979C10.9864 5.3399 10.9163 5.11182 10.8572 4.96008V4.96008ZM7.49997 9.71143C6.27854 9.71143 5.2884 8.72141 5.2884 7.49998C5.2884 6.27855 6.27854 5.28852 7.49997 5.28852C8.72128 5.28852 9.71143 6.27855 9.71143 7.49998C9.71143 8.72141 8.72128 9.71143 7.49997 9.71143ZM9.79886 5.7179C9.51344 5.7179 9.28204 5.4865 9.28204 5.20109C9.28204 4.91567 9.51344 4.68427 9.79886 4.68427C10.0843 4.68427 10.3157 4.91567 10.3157 5.20109C10.3156 5.4865 10.0843 5.7179 9.79886 5.7179Z" fill="white"/>
<path d="M7.5 0C3.3585 0 0 3.3585 0 7.5C0 11.6415 3.3585 15 7.5 15C11.6415 15 15 11.6415 15 7.5C15 3.3585 11.6415 0 7.5 0ZM11.7807 9.27555C11.7598 9.734 11.6869 10.047 11.5805 10.321C11.3568 10.8995 10.8995 11.3568 10.321 11.5805C10.0471 11.6869 9.734 11.7597 9.27567 11.7807C8.81641 11.8016 8.6697 11.8066 7.50011 11.8066C6.33041 11.8066 6.18382 11.8016 5.72445 11.7807C5.26611 11.7597 4.953 11.6869 4.67915 11.5805C4.39167 11.4724 4.13143 11.3029 3.91628 11.0837C3.69724 10.8687 3.52776 10.6083 3.41961 10.321C3.31318 10.0471 3.24028 9.734 3.21945 9.27567C3.19828 8.8163 3.19336 8.66959 3.19336 7.5C3.19336 6.33041 3.19828 6.1837 3.21934 5.72445C3.24017 5.266 3.31295 4.953 3.41938 4.67903C3.52753 4.39167 3.69713 4.13132 3.91628 3.91628C4.13132 3.69713 4.39167 3.52764 4.67903 3.41949C4.953 3.31306 5.266 3.24028 5.72445 3.21934C6.1837 3.19839 6.33041 3.19336 7.5 3.19336C8.66959 3.19336 8.8163 3.19839 9.27555 3.21945C9.734 3.24028 10.047 3.31306 10.321 3.41938C10.6083 3.52753 10.8687 3.69713 11.0838 3.91628C11.3029 4.13143 11.4725 4.39167 11.5805 4.67903C11.687 4.953 11.7598 5.266 11.7808 5.72445C11.8017 6.1837 11.8066 6.33041 11.8066 7.5C11.8066 8.66959 11.8017 8.8163 11.7807 9.27555V9.27555Z" fill="white"/>
</svg>
