<svg width="21" height="23" viewBox="0 0 21 23" fill="none" xmlns="http://www.w3.org/2000/svg">
<path d="M5.7786 14.9111H17.8005C19.1636 14.9111 20.2757 13.7991 20.2757 12.4359V7.37783C20.2757 7.37334 20.2757 7.36438 20.2757 7.35989C20.2757 7.34644 20.2757 7.33747 20.2757 7.32402C20.2757 7.31505 20.2757 7.30608 20.2712 7.29712C20.2712 7.28815 20.2667 7.27469 20.2667 7.26573C20.2667 7.25676 20.2622 7.24779 20.2622 7.23882C20.2577 7.22985 20.2577 7.22089 20.2533 7.20743C20.2488 7.19847 20.2488 7.1895 20.2443 7.18053C20.2398 7.17156 20.2398 7.16259 20.2353 7.15362C20.2308 7.14466 20.2263 7.13569 20.2219 7.12224C20.2174 7.11327 20.2129 7.1043 20.2084 7.09982C20.2039 7.09085 20.1994 7.08188 20.195 7.07291C20.1905 7.06394 20.186 7.05946 20.1815 7.05049C20.177 7.04152 20.1681 7.03255 20.1636 7.02359C20.1591 7.01462 20.1546 7.01013 20.1456 7.00116C20.1412 6.9922 20.1322 6.98771 20.1277 6.97874C20.1232 6.96978 20.1142 6.96529 20.1098 6.95632C20.1053 6.94736 20.0963 6.94287 20.0918 6.93839C20.0829 6.92942 20.0784 6.92494 20.0694 6.91597C20.0604 6.91148 20.056 6.90252 20.047 6.89803C20.038 6.89355 20.029 6.88458 20.0201 6.88009C20.0111 6.87561 20.0066 6.87113 19.9977 6.86664C19.9887 6.86216 19.9797 6.85767 19.9708 6.84871C19.9618 6.84422 19.9528 6.83974 19.9439 6.83525C19.9349 6.83077 19.9259 6.82628 19.9169 6.8218C19.908 6.81732 19.899 6.81283 19.89 6.80835C19.8811 6.80387 19.8721 6.80386 19.8631 6.79938C19.8542 6.7949 19.8407 6.79041 19.8317 6.79041C19.8228 6.79041 19.8138 6.78593 19.8093 6.78593C19.7959 6.78144 19.7869 6.78144 19.7735 6.78144C19.769 6.78144 19.7645 6.77696 19.7555 6.77696L4.51857 4.67392V2.54846C4.51857 2.52604 4.51857 2.50362 4.51408 2.48568C4.51408 2.4812 4.51408 2.47671 4.5096 2.46775C4.5096 2.45429 4.50511 2.44084 4.50511 2.42739C4.50063 2.41394 4.50063 2.40497 4.49615 2.39152C4.49615 2.38255 4.49166 2.37806 4.49166 2.3691C4.48718 2.35564 4.48269 2.34219 4.47821 2.32874C4.47821 2.32426 4.47373 2.31529 4.47373 2.3108C4.46924 2.29735 4.46476 2.28838 4.45579 2.27493C4.4513 2.27045 4.4513 2.26148 4.44682 2.25699C4.44234 2.24803 4.43785 2.23906 4.42888 2.23009C4.4244 2.22112 4.41992 2.21664 4.41543 2.20767C4.41095 2.1987 4.40646 2.19422 4.40198 2.18525C4.3975 2.17628 4.38853 2.16731 4.38404 2.15834C4.37956 2.15386 4.37508 2.14938 4.37059 2.14489C4.36162 2.13592 4.35265 2.12695 4.34369 2.11799C4.3392 2.1135 4.33472 2.10902 4.33023 2.10453C4.32127 2.09557 4.3123 2.0866 4.29885 2.07763C4.29436 2.07315 4.28539 2.06866 4.28091 2.06418C4.27194 2.05521 4.26297 2.05073 4.254 2.04176C4.24055 2.03279 4.2271 2.02382 4.21813 2.01934C4.21365 2.01485 4.20916 2.01485 4.20468 2.01037C4.18674 2.0014 4.16432 1.99243 4.14639 1.98346L0.841609 0.593395C0.532206 0.463356 0.177963 0.606847 0.0479238 0.91625C-0.082115 1.22565 0.0613761 1.5799 0.370779 1.70993L3.30338 2.94754V5.69181V6.12677V9.46293V12.4449V16.2115C3.30338 17.467 4.24504 18.5073 5.46023 18.6643C5.24051 19.032 5.11047 19.4625 5.11047 19.9198C5.11047 21.2696 6.20907 22.3637 7.5543 22.3637C8.89953 22.3637 9.99813 21.2651 9.99813 19.9198C9.99813 19.4714 9.87706 19.0454 9.66182 18.6867H15.1055C14.8903 19.0499 14.7692 19.4714 14.7692 19.9198C14.7692 21.2696 15.8678 22.3637 17.213 22.3637C18.5583 22.3637 19.6569 21.2651 19.6569 19.9198C19.6569 18.5746 18.5583 17.476 17.213 17.476H5.7786C5.07908 17.476 4.51408 16.9065 4.51408 16.2115V14.5703C4.88178 14.7856 5.31673 14.9111 5.7786 14.9111ZM8.79191 19.9154C8.79191 20.5969 8.23588 21.1485 7.55878 21.1485C6.88168 21.1485 6.32566 20.5925 6.32566 19.9154C6.32566 19.2383 6.88168 18.6822 7.55878 18.6822C8.23588 18.6822 8.79191 19.2338 8.79191 19.9154ZM18.4506 19.9154C18.4506 20.5969 17.8946 21.1485 17.2175 21.1485C16.5404 21.1485 15.9844 20.5925 15.9844 19.9154C15.9844 19.2383 16.5404 18.6822 17.2175 18.6822C17.8946 18.6822 18.4506 19.2338 18.4506 19.9154ZM17.8005 13.7004H5.7786C5.07908 13.7004 4.51408 13.1309 4.51408 12.4359V9.45396V6.1178V5.89359L19.065 7.89798V12.4314C19.065 13.1354 18.4955 13.7004 17.8005 13.7004Z" fill="#A72B07"/>
</svg>
