<svg width="15" height="15" viewBox="0 0 15 15" fill="none" xmlns="http://www.w3.org/2000/svg">
<path d="M7.5 0C3.35785 0 0 3.35785 0 7.5C0 11.6421 3.35785 15 7.5 15C11.6421 15 15 11.6421 15 7.5C15 3.35785 11.6421 0 7.5 0ZM12.0353 5.4999C12.0388 5.58844 12.0407 5.67714 12.0407 5.76629C12.0407 8.97008 9.60276 12.2839 5.52307 12.2839C4.27596 12.2839 3.06169 11.928 2.01161 11.2545C1.98967 11.2406 1.98061 11.2134 1.98936 11.189C1.99811 11.1648 2.02281 11.1497 2.04813 11.1526C2.2243 11.1737 2.40445 11.1841 2.58322 11.1841C3.5535 11.1841 4.47207 10.8841 5.249 10.3149C4.3177 10.2364 3.51729 9.60614 3.22941 8.70706C3.22343 8.68834 3.22772 8.66793 3.24061 8.6532C3.25366 8.63847 3.27361 8.63202 3.29263 8.63555C3.55074 8.6845 3.81315 8.68772 4.06604 8.6466C3.10558 8.34813 2.43054 7.44844 2.43054 6.42414L2.43084 6.39437C2.4313 6.37488 2.44189 6.35708 2.45877 6.34742C2.4755 6.3376 2.49637 6.33744 2.51325 6.34696C2.76368 6.48598 3.04082 6.57529 3.32517 6.60951C2.7732 6.16956 2.4491 5.50266 2.4491 4.78926C2.4491 4.3777 2.55806 3.9732 2.7643 3.61949C2.7735 3.60368 2.78977 3.59355 2.80788 3.59217C2.82614 3.59033 2.84379 3.59831 2.85529 3.61243C3.98501 4.99811 5.64675 5.8513 7.42373 5.96102C7.39412 5.81187 7.37908 5.65811 7.37908 5.50297C7.37908 4.21995 8.42286 3.17632 9.70573 3.17632C10.3364 3.17632 10.9459 3.4355 11.3828 3.88849C11.8752 3.78813 12.3443 3.60706 12.7777 3.35018C12.7975 3.33836 12.8224 3.3402 12.8406 3.35448C12.8584 3.3689 12.8658 3.39284 12.8587 3.41494C12.7119 3.87422 12.4255 4.27488 12.0408 4.56414C12.4031 4.50107 12.7547 4.39458 13.0891 4.24619C13.1115 4.23591 13.138 4.24235 13.1541 4.26123C13.1701 4.28026 13.1715 4.30742 13.1576 4.32798C12.853 4.78389 12.4755 5.17811 12.0353 5.4999Z" fill="white"/>
</svg>
